<mxfile host="app.diagrams.net" agent="Mozilla/5.0 (Windows NT 10.0; Win64; x64) AppleWebKit/537.36 (KHTML, like Gecko) Chrome/127.0.0.0 Safari/537.36" version="24.7.7">
  <diagram name="Page-1" id="yojxZ8sjViH0cY1115s4">
    <mxGraphModel dx="1059" dy="595" grid="1" gridSize="10" guides="1" tooltips="1" connect="1" arrows="1" fold="1" page="1" pageScale="1" pageWidth="850" pageHeight="1100" math="0" shadow="0">
      <root>
        <mxCell id="0" />
        <mxCell id="1" parent="0" />
        <mxCell id="KxJ99_L79iYmne7ekxHM-1" value="Employee Interface()&lt;div&gt;employee info()&lt;/div&gt;&lt;div&gt;employee address()&lt;/div&gt;&lt;div&gt;employee details()&lt;br&gt;&lt;div&gt;&lt;br&gt;&lt;/div&gt;&lt;/div&gt;" style="rounded=1;whiteSpace=wrap;html=1;align=center;" parent="1" vertex="1">
          <mxGeometry x="50" y="50" width="130" height="110" as="geometry" />
        </mxCell>
        <mxCell id="KxJ99_L79iYmne7ekxHM-2" value="Abstract method&lt;div&gt;account details();&lt;/div&gt;&lt;div&gt;complemented methods&lt;/div&gt;&lt;div&gt;bank details())&lt;/div&gt;" style="rounded=1;whiteSpace=wrap;html=1;" parent="1" vertex="1">
          <mxGeometry x="50" y="210" width="120" height="100" as="geometry" />
        </mxCell>
        <mxCell id="KxJ99_L79iYmne7ekxHM-3" value="//static block&lt;div&gt;class BankRBI&lt;/div&gt;&lt;div&gt;{&lt;/div&gt;&lt;div&gt;static {&lt;/div&gt;&lt;div&gt;sopln(&quot;...&quot;);&lt;/div&gt;&lt;div&gt;}&lt;/div&gt;&lt;div&gt;BankRBI(){&lt;br&gt;sop(&quot;......&quot;);&lt;/div&gt;&lt;div&gt;BankRBI(int p,int r){&lt;/div&gt;&lt;div&gt;sopl(&quot;....&quot;);&lt;/div&gt;&lt;div&gt;ststic final getbank details{&lt;/div&gt;&lt;div&gt;sopln(&quot;....&quot;)&lt;/div&gt;&lt;div&gt;}&lt;/div&gt;" style="whiteSpace=wrap;html=1;aspect=fixed;" parent="1" vertex="1">
          <mxGeometry x="280" y="70" width="240" height="240" as="geometry" />
        </mxCell>
        <mxCell id="KxJ99_L79iYmne7ekxHM-4" value="" style="shape=link;html=1;rounded=0;" parent="1" edge="1">
          <mxGeometry width="100" relative="1" as="geometry">
            <mxPoint x="130" y="20" as="sourcePoint" />
            <mxPoint x="450" y="20" as="targetPoint" />
          </mxGeometry>
        </mxCell>
        <mxCell id="KxJ99_L79iYmne7ekxHM-5" value="" style="endArrow=none;html=1;rounded=0;" parent="1" edge="1">
          <mxGeometry width="50" height="50" relative="1" as="geometry">
            <mxPoint x="150" y="50" as="sourcePoint" />
            <mxPoint x="150" y="20" as="targetPoint" />
          </mxGeometry>
        </mxCell>
        <mxCell id="KxJ99_L79iYmne7ekxHM-6" value="" style="endArrow=none;html=1;rounded=0;exitX=0.667;exitY=0;exitDx=0;exitDy=0;exitPerimeter=0;" parent="1" source="KxJ99_L79iYmne7ekxHM-3" edge="1">
          <mxGeometry width="50" height="50" relative="1" as="geometry">
            <mxPoint x="390" y="70" as="sourcePoint" />
            <mxPoint x="440" y="20" as="targetPoint" />
          </mxGeometry>
        </mxCell>
        <mxCell id="4u3mWffDSLLGjmA9rJUJ-1" value="Class EmployeeInfo&lt;div&gt;&amp;nbsp;BankAccount Implements EmployeeInterface&lt;/div&gt;&lt;div&gt;Public void employeeinfo(int eno,float sal)&lt;/div&gt;&lt;div&gt;public void employeeDetails()&lt;/div&gt;&lt;div&gt;public void accounyDetails()&lt;/div&gt;&lt;div&gt;public void show()&lt;/div&gt;&lt;div&gt;&lt;br&gt;&lt;/div&gt;" style="whiteSpace=wrap;html=1;aspect=fixed;" vertex="1" parent="1">
          <mxGeometry x="620" y="50" width="330" height="330" as="geometry" />
        </mxCell>
        <mxCell id="4u3mWffDSLLGjmA9rJUJ-3" value="" style="shape=link;html=1;rounded=0;" edge="1" parent="1">
          <mxGeometry width="100" relative="1" as="geometry">
            <mxPoint x="450" y="20" as="sourcePoint" />
            <mxPoint x="810" y="20" as="targetPoint" />
          </mxGeometry>
        </mxCell>
        <mxCell id="4u3mWffDSLLGjmA9rJUJ-4" value="" style="endArrow=none;html=1;rounded=0;exitX=0.421;exitY=-0.01;exitDx=0;exitDy=0;exitPerimeter=0;" edge="1" parent="1" source="4u3mWffDSLLGjmA9rJUJ-1">
          <mxGeometry width="50" height="50" relative="1" as="geometry">
            <mxPoint x="710" y="80" as="sourcePoint" />
            <mxPoint x="760" y="30" as="targetPoint" />
          </mxGeometry>
        </mxCell>
        <mxCell id="4u3mWffDSLLGjmA9rJUJ-6" value="" style="endArrow=classic;html=1;rounded=0;" edge="1" parent="1">
          <mxGeometry width="50" height="50" relative="1" as="geometry">
            <mxPoint x="250" y="260" as="sourcePoint" />
            <mxPoint x="250" y="30" as="targetPoint" />
          </mxGeometry>
        </mxCell>
        <mxCell id="4u3mWffDSLLGjmA9rJUJ-7" value="" style="endArrow=none;html=1;rounded=0;" edge="1" parent="1">
          <mxGeometry width="50" height="50" relative="1" as="geometry">
            <mxPoint x="170" y="260" as="sourcePoint" />
            <mxPoint x="250" y="260" as="targetPoint" />
          </mxGeometry>
        </mxCell>
        <mxCell id="4u3mWffDSLLGjmA9rJUJ-8" value="" style="endArrow=classic;html=1;rounded=0;" edge="1" parent="1">
          <mxGeometry width="50" height="50" relative="1" as="geometry">
            <mxPoint x="530" y="210" as="sourcePoint" />
            <mxPoint x="620" y="210" as="targetPoint" />
          </mxGeometry>
        </mxCell>
      </root>
    </mxGraphModel>
  </diagram>
</mxfile>
